<?xml version="1.0" encoding="utf-8"?>
<!-- Generator: Adobe Illustrator 21.0.0, SVG Export Plug-In . SVG Version: 6.00 Build 0)  -->
<svg version="1.1" id="horizontal_logo" xmlns="http://www.w3.org/2000/svg" xmlns:xlink="http://www.w3.org/1999/xlink" x="0px"
	 y="0px" viewBox="0 0 451.3 150" style="enable-background:new 0 0 451.3 150;" xml:space="preserve">
<style type="text/css">
	.st0{fill:#08BFF7;}
	.st1{fill:#FFFFFF;}
	.st2{clip-path:url(#SVGID_2_);}
	.st3{fill:#898989;}
	.st4{fill:#F9BE06;}
	.st5{fill:#18E8C0;}
</style>
<title>Artboard 1</title>
<path class="st0" d="M151.4,104.1l-13.7-50l-13.6,50c-0.8,3.1-4.1,4.9-7.2,4.1c-2-0.5-3.5-2-4.1-4L96.4,46.5
	c-0.1-0.4-0.2-0.9-0.2-1.3c0-2.4,2-4.4,4.4-4.4c2,0,3.7,1.4,4.2,3.3l14.1,52.8L133.4,44c0.7-2.4,3.1-3.7,5.5-3c1.5,0.4,2.6,1.6,3,3
	l14.5,52.9l14-52.8c0.6-2.3,3-3.7,5.3-3.1c1.9,0.5,3.3,2.2,3.3,4.2c0,0.4-0.1,0.9-0.2,1.3l-16.4,57.7c-0.9,3.1-4,4.9-7.1,4
	C153.4,107.7,151.9,106.1,151.4,104.1L151.4,104.1z"/>
<path class="st0" d="M182.7,83.8c0-14,9.2-25.3,24-25.3s23.9,11.3,23.9,25.3s-9.2,25.5-23.9,25.5S182.7,97.8,182.7,83.8z
	 M222.7,83.8c0-9.8-5.7-18.6-16-18.6s-16.1,8.8-16.1,18.6s5.8,18.7,16.1,18.7S222.7,93.7,222.7,83.8z"/>
<path class="st0" d="M263.8,58.4c14.6,0,23.2,11.4,23.2,24.1c0,2.4-1.6,3.8-4.4,3.8h-34.8c0.6,9.1,7,16.7,17.4,16.7
	c4.7,0,9.3-1.6,13-4.6c0.5-0.3,1.1-0.4,1.7-0.4c1.7-0.1,3,1.2,3.1,2.9c0,0,0,0.1,0,0.1c0,1-0.5,1.9-1.3,2.5
	c-4.9,3.8-11,5.8-17.2,5.7c-14.3,0-24.6-10.3-24.6-25.4C240,69.7,250,58.4,263.8,58.4z M247.9,80.8h31.8
	c-0.1-7.2-4.9-16.1-15.9-16.1C253.4,64.6,248.3,73.3,247.9,80.8z"/>
<path class="st0" d="M344.7,83.9c0,15.7-8.9,25.3-21.5,25.3c-6.5-0.1-12.5-3.2-16.3-8.4v3.9c0,2.1-1.7,3.8-3.8,3.8
	c-2.1,0-3.8-1.7-3.8-3.8V44.5c0-2.1,1.7-3.8,3.8-3.8c2.1,0,3.8,1.7,3.8,3.8V67c3.7-5.4,9.8-8.6,16.3-8.6
	C335.7,58.4,344.7,68.4,344.7,83.9z M336.8,83.9c0-10.7-5.8-18.7-15.6-18.7c-5.8,0.1-11.2,3-14.4,7.8v21.9c2.6,4.2,8.5,7.6,14.4,7.6
	C331,102.5,336.8,94.6,336.8,83.9L336.8,83.9z"/>
<path class="st0" d="M354,83.8c0-14,9.2-25.3,24-25.3s24,11.3,24,25.3s-9.2,25.5-24,25.5S354,97.8,354,83.8z M394,83.8
	c0-9.8-5.7-18.6-16-18.6s-16.2,8.8-16.2,18.6s5.8,18.7,16.1,18.7S394,93.7,394,83.8L394,83.8z"/>
<path class="st0" d="M435.1,104.8c0.1,1.3-0.7,2.4-1.9,2.8c-2.1,1.1-4.4,1.7-6.8,1.6c-7.1,0-10.7-4.1-10.7-11.3V66.2h-5.1
	c-1.8,0.1-3.4-1.3-3.5-3.1c-0.1-1.8,1.3-3.4,3.1-3.5c0.1,0,0.2,0,0.4,0h5.1v-9.9c0-2.1,1.7-3.8,3.8-3.8c2.1,0,3.8,1.7,3.8,3.8v9.9
	h6.9c1.8-0.1,3.4,1.3,3.5,3.1c0.1,1.8-1.3,3.4-3.1,3.5c-0.1,0-0.2,0-0.4,0h-6.9v30.1c0,3.6,1.6,6.2,4.9,6.2c2.1,0,2.8-0.9,3.8-0.9
	c1.7-0.1,3.1,1.2,3.2,2.9C435.1,104.6,435.1,104.7,435.1,104.8z"/>
<path class="st0" d="M443.9,45.2c4.1,0,7.4,3.3,7.4,7.4c0,4.1-3.3,7.4-7.4,7.4c-4.1,0-7.4-3.3-7.4-7.4c0,0,0,0,0,0
	c0-4.1,3.3-7.4,7.3-7.4C443.8,45.2,443.9,45.2,443.9,45.2z M443.9,46.2c-3.6,0-6.4,2.9-6.4,6.4c0,3.6,2.9,6.4,6.4,6.4
	c3.6,0,6.4-2.9,6.4-6.4c0,0,0,0,0,0C450.3,49.1,447.4,46.2,443.9,46.2C443.9,46.2,443.9,46.2,443.9,46.2L443.9,46.2z M444,53.5h-1.8
	v3c0,0.3-0.2,0.5-0.5,0.5c-0.3,0-0.6-0.2-0.6-0.5c0,0,0,0,0,0v-7.4c0-0.4,0.3-0.7,0.7-0.7l0,0h2.8c1.4-0.1,2.6,1,2.7,2.5
	c0,0,0,0.1,0,0.1c0,1.2-0.8,2.2-2,2.5l1.8,2.7c0.1,0.1,0.1,0.2,0.1,0.3c0,0.3-0.3,0.6-0.6,0.6c-0.2,0-0.4-0.1-0.5-0.3L444,53.5z
	 M444.5,49.3h-2.4v3.2h2.4c0.9-0.1,1.5-0.8,1.4-1.7C445.9,50,445.3,49.4,444.5,49.3L444.5,49.3z"/>
<circle class="st1" cx="44.4" cy="75" r="41.2"/>
<g>
	<defs>
		<path id="SVGID_1_" d="M84.8,75c0,20.3-16.2,40.4-40.4,40.4C24,115.4,4,96.8,4,76.4c0-19.2,18.9-41.8,40.4-41.8
			C64.7,34.6,84.8,54.7,84.8,75z"/>
	</defs>
	<clipPath id="SVGID_2_">
		<use xlink:href="#SVGID_1_"  style="overflow:visible;"/>
	</clipPath>
	<g class="st2">
		<path class="st3" d="M46.5,105.3l-4.4-3C48,93.9,45,87.9,41,79.7l-1-2.1l4.8-2.3l1,2.1C49.9,85.7,54.1,94.3,46.5,105.3z"/>
		<path class="st4" d="M21.5,59.5l38.9-6.7c4.3-0.7,8.5,2.2,9.2,6.5l2,11.7c0.7,4.3-2.2,8.5-6.5,9.2l-38.9,6.7
			c-4.3,0.7-8.5-2.2-9.2-6.5l-2-11.7C14.3,64.4,17.2,60.2,21.5,59.5z"/>
		<path class="st3" d="M24.9,88.5c-4.6,0-8.5-3.3-9.3-7.8l-2-11.7c-0.9-5.1,2.6-10.1,7.7-11l38.9-6.7c5.1-0.9,10,2.6,10.9,7.7
			l2,11.7c0.9,5.1-2.6,10-7.7,10.9l-38.9,6.7C26,88.5,25.4,88.5,24.9,88.5z M61.8,54.2c-0.4,0-0.7,0-1.1,0.1L21.8,61
			c-3.5,0.6-5.9,4-5.3,7.5l2,11.7c0.6,3.5,4,5.9,7.5,5.3l38.9-6.7c3.5-0.6,5.9-4,5.3-7.5l-2-11.7C67.7,56.5,65,54.2,61.8,54.2z"/>
		<ellipse transform="matrix(0.9856 -0.1692 0.1692 0.9856 -11.6342 6.6594)" class="st1" cx="33.3" cy="71.6" rx="7.2" ry="7.2"/>
		<path class="st5" d="M33.3,79.7c-4.5,0-8.1-3.6-8.1-8.1s3.6-8.1,8.1-8.1s8.1,3.6,8.1,8.1c0,3.9-2.8,7.3-6.7,8
			C34.2,79.7,33.7,79.7,33.3,79.7z M33.3,65.3c-3.5,0-6.3,2.8-6.3,6.3s2.8,6.3,6.3,6.3c3.5,0,6.3-2.8,6.3-6.3c0-0.4,0-0.7-0.1-1.1
			C39,67.5,36.3,65.3,33.3,65.3L33.3,65.3z"/>
		<ellipse transform="matrix(0.9856 -0.1692 0.1692 0.9856 -10.7301 10.1228)" class="st1" cx="54" cy="68" rx="7.2" ry="7.2"/>
		<path class="st5" d="M54,76.1c-4.5,0-8.1-3.6-8.1-8.1s3.6-8.1,8.1-8.1c3.9,0,7.3,2.8,7.9,6.7l0,0c0.8,4.4-2.2,8.6-6.6,9.3
			C55,76.1,54.5,76.1,54,76.1z M54,61.7c-3.5,0-6.3,2.8-6.3,6.3c0,3.5,2.8,6.3,6.3,6.3c3.5,0,6.3-2.8,6.3-6.3c0-0.3,0-0.7-0.1-1l0,0
			C59.8,64,57.1,61.7,54,61.7L54,61.7z"/>
		<ellipse transform="matrix(0.9856 -0.1692 0.1692 0.9856 -10.7318 10.1163)" class="st0" cx="54" cy="68" rx="3.5" ry="3.5"/>
		<ellipse transform="matrix(0.7999 -0.6001 0.6001 0.7999 -36.3164 34.2915)" class="st0" cx="33.3" cy="71.6" rx="3.5" ry="3.5"/>
		<path class="st4" d="M70,170.6H20.6c-4.4,0-8-3.6-8-8l8.9-56.9c0-4.4,3.6-8,8-8h31.7c4.4,0,8,3.6,8,8l8.8,56.9
			C78,167,74.4,170.6,70,170.6z"/>
	</g>
</g>
<path class="st0" d="M44.4,119.4C19.9,119.4,0,99.5,0,75s19.9-44.4,44.4-44.4S88.7,50.5,88.7,75l0,0
	C88.7,99.5,68.8,119.3,44.4,119.4z M44.4,37c-21,0-38,17-38,38s17,38,38,38s38-17,38-38C82.3,54,65.3,37,44.4,37z"/>
</svg>
